<svg width="1400" height="760" viewBox="0 0 1400 760" xmlns="http://www.w3.org/2000/svg" font-family="'Segoe UI','Helvetica Neue',Arial,sans-serif">
  <defs>
    <marker id="arrowBlue" markerWidth="10" markerHeight="7" refX="9" refY="3.5" orient="auto">
      <polygon points="0 0, 10 3.5, 0 7" fill="#1e3799"/>
    </marker>
    <marker id="arrowGreen" markerWidth="10" markerHeight="7" refX="9" refY="3.5" orient="auto">
      <polygon points="0 0, 10 3.5, 0 7" fill="#16a34a"/>
    </marker>
    <marker id="arrowAmber" markerWidth="10" markerHeight="7" refX="9" refY="3.5" orient="auto">
      <polygon points="0 0, 10 3.5, 0 7" fill="#b45309"/>
    </marker>
  </defs>

  <rect width="1400" height="760" fill="#ffffff"/>

  <!-- ── TITLE ── -->
  <polygon points="22,12 54,12 70,40 54,68 22,68 6,40" fill="#1e3799"/>
  <text x="38" y="48" font-size="14" font-weight="700" fill="white" text-anchor="middle">WA</text>
  <text x="82" y="34" font-size="22" font-weight="700" fill="#1a1a2e">WasmAgent</text>
  <text x="82" y="54" font-size="13" fill="#666">Product Matrix</text>

  <!-- ── SIDEBAR LABELS ── -->
  <ellipse cx="104" cy="108" rx="20" ry="7" fill="none" stroke="#ccc" stroke-width="1.5"/>
  <rect x="84" y="108" width="40" height="16" fill="none" stroke="#ccc" stroke-width="1.5"/>
  <ellipse cx="104" cy="124" rx="20" ry="7" fill="none" stroke="#ccc" stroke-width="1.5"/>
  <text x="104" y="143" font-size="8.5" fill="#aaa" text-anchor="middle">Core Sources</text>

  <text x="104" y="252" font-size="20" font-weight="300" fill="#ccc" text-anchor="middle">{ }</text>
  <text x="104" y="268" font-size="8.5" fill="#aaa" text-anchor="middle">Protocol</text>

  <circle cx="104" cy="414" r="13" fill="none" stroke="#ccc" stroke-width="1.5"/>
  <circle cx="104" cy="414" r="5" fill="none" stroke="#ccc" stroke-width="1.5"/>
  <text x="104" y="436" font-size="8.5" fill="#aaa" text-anchor="middle">Pipelines</text>

  <rect x="88" y="630" width="32" height="24" rx="3" fill="none" stroke="#ccc" stroke-width="1.5"/>
  <line x1="88" y1="641" x2="120" y2="641" stroke="#ccc" stroke-width="1.5"/>
  <line x1="104" y1="630" x2="104" y2="654" stroke="#ccc" stroke-width="1.5"/>
  <text x="104" y="670" font-size="8.5" fill="#aaa" text-anchor="middle">Outputs</text>

  <!-- ══════════════════════════════════════════════
       ROW 1 — wasmagent-js
  ══════════════════════════════════════════════════ -->
  <rect x="390" y="78" width="340" height="68" rx="12" fill="#dfe6ff" stroke="#1e3799" stroke-width="2.5"/>
  <polygon points="408,91 424,91 432,106 424,121 408,121 400,106" fill="#1e3799"/>
  <text x="416" y="110" font-size="9.5" font-weight="700" fill="white" text-anchor="middle">WA</text>
  <text x="526" y="108" font-size="19" font-weight="700" fill="#1e3799">wasmagent-js</text>
  <text x="526" y="126" font-size="11" fill="#556">runtime · SDK · AEP emitter</text>

  <line x1="500" y1="146" x2="406" y2="184" stroke="#1e3799" stroke-width="2" marker-end="url(#arrowBlue)"/>
  <line x1="640" y1="146" x2="718" y2="184" stroke="#1e3799" stroke-width="2" marker-end="url(#arrowBlue)"/>

  <!-- ══════════════════════════════════════════════
       ROW 2 — bscode + erp-agent
  ══════════════════════════════════════════════════ -->
  <rect x="200" y="184" width="264" height="60" rx="10" fill="#dfe6ff" stroke="#1e3799" stroke-width="2"/>
  <text x="226" y="220" font-size="16" font-weight="700" fill="#1e3799" font-family="monospace">&lt;/&gt;</text>
  <text x="268" y="210" font-size="16" font-weight="700" fill="#1e3799">bscode</text>
  <text x="268" y="229" font-size="11" fill="#556">coding-agent workload</text>

  <rect x="560" y="184" width="270" height="60" rx="10" fill="#f0f0fc" stroke="#7f8fc8" stroke-width="2" stroke-dasharray="8,4"/>
  <rect x="784" y="181" width="50" height="17" rx="8" fill="#9b59b6"/>
  <text x="809" y="193" font-size="9" font-weight="700" fill="white" text-anchor="middle">planned</text>
  <rect x="577" y="202" width="19" height="19" rx="3" fill="none" stroke="#7f8fc8" stroke-width="2"/>
  <line x1="577" y1="211" x2="596" y2="211" stroke="#7f8fc8" stroke-width="1.5"/>
  <line x1="586" y1="202" x2="586" y2="221" stroke="#7f8fc8" stroke-width="1.5"/>
  <text x="610" y="210" font-size="16" font-weight="700" fill="#7f8fc8">erp-agent</text>
  <text x="610" y="229" font-size="11" fill="#aaa">ERP workload</text>

  <line x1="332" y1="244" x2="332" y2="282" stroke="#1e3799" stroke-width="2" marker-end="url(#arrowBlue)"/>
  <line x1="695" y1="244" x2="695" y2="282" stroke="#1e3799" stroke-width="2" marker-end="url(#arrowBlue)"/>

  <!-- ══════════════════════════════════════════════
       ROW 3 — AEP JSONL
  ══════════════════════════════════════════════════ -->
  <rect x="180" y="282" width="840" height="52" rx="10" fill="#bfdbfe" stroke="#1e3799" stroke-width="3"/>
  <text x="208" y="315" font-size="20" font-weight="300" fill="#1e3799">{ }</text>
  <text x="600" y="308" font-size="21" font-weight="800" fill="#1e3799" text-anchor="middle">AEP JSONL</text>
  <text x="600" y="325" font-size="11" fill="#445" text-anchor="middle">signed runtime evidence — canonical protocol</text>

  <line x1="390" y1="334" x2="390" y2="366" stroke="#1e3799" stroke-width="2" marker-end="url(#arrowBlue)"/>
  <line x1="810" y1="334" x2="810" y2="366" stroke="#1e3799" stroke-width="2" marker-end="url(#arrowBlue)"/>

  <!-- ══════════════════════════════════════════════
       ROW 4a — trace-pipeline
       x=180, width=420, right=600
  ══════════════════════════════════════════════════ -->
  <rect x="180" y="366" width="420" height="238" rx="12" fill="#dfe6ff" stroke="#1e3799" stroke-width="2"/>
  <!-- icon -->
  <circle cx="198" cy="382" r="4" fill="#1e3799"/>
  <circle cx="210" cy="392" r="3.5" fill="#1e3799"/>
  <circle cx="199" cy="393" r="3.5" fill="#1e3799"/>
  <line x1="198" y1="386" x2="199" y2="389" stroke="#1e3799" stroke-width="1.5"/>
  <line x1="198" y1="386" x2="210" y2="388" stroke="#1e3799" stroke-width="1.5"/>
  <text x="224" y="390" font-size="16" font-weight="700" fill="#1e3799">trace-pipeline</text>
  <line x1="190" y1="400" x2="594" y2="400" stroke="#1e3799" stroke-width="1" stroke-opacity="0.2"/>

  <!-- A -->
  <rect x="192" y="408" width="400" height="60" rx="7" fill="#c7d8ff" stroke="#1e3799" stroke-width="1" stroke-opacity="0.4"/>
  <text x="208" y="427" font-size="11.5" font-weight="700" fill="#1e3799">Measurement Trust</text>
  <text x="208" y="445" font-size="11" fill="#445">benchmark claim audit</text>
  <text x="208" y="462" font-size="10" fill="#888">paired stats · AgentTrustScore</text>

  <!-- B -->
  <rect x="192" y="474" width="400" height="44" rx="7" fill="#c7d8ff" stroke="#1e3799" stroke-width="1" stroke-opacity="0.4"/>
  <text x="208" y="492" font-size="11.5" font-weight="700" fill="#1e3799">Evidence Admission</text>
  <text x="208" y="511" font-size="11" fill="#445">signature · provenance · contamination</text>

  <!-- C -->
  <rect x="192" y="524" width="400" height="60" rx="7" fill="#c7d8ff" stroke="#1e3799" stroke-width="1" stroke-opacity="0.4"/>
  <text x="208" y="543" font-size="11.5" font-weight="700" fill="#1e3799">Training Audit</text>
  <text x="208" y="561" font-size="11" fill="#445">training manifest · regression gate</text>
  <text x="208" y="578" font-size="10" fill="#888">promote · hold · reject</text>

  <!-- ══════════════════════════════════════════════
       ROW 4b — open-agent-audit
       x=640, width=380, right=1020
       corridor 600→640 = 40px, arrow at x=600→640
  ══════════════════════════════════════════════════ -->
  <rect x="640" y="366" width="380" height="238" rx="12" fill="#dcfce7" stroke="#166534" stroke-width="2"/>
  <path d="M658,376 L676,376 L676,389 L667,396 L658,389 Z" fill="none" stroke="#166534" stroke-width="2"/>
  <text x="667" y="391" font-size="9.5" font-weight="700" fill="#166534" text-anchor="middle">&#10003;</text>
  <text x="690" y="392" font-size="16" font-weight="700" fill="#166534">open-agent-audit</text>
  <line x1="650" y1="400" x2="1012" y2="400" stroke="#166534" stroke-width="1" stroke-opacity="0.2"/>
  <text x="830" y="416" font-size="10" fill="#2d6a40" text-anchor="middle" font-style="italic">trustavo.com</text>

  <text x="656" y="444" font-size="11.5" font-weight="700" fill="#1a4020">Audit Evidence Pipeline</text>
  <text x="656" y="464" font-size="11" fill="#1a4020">validate · inventory · policy-audit</text>
  <text x="656" y="484" font-size="11" fill="#1a4020">benchmark · drift · contamination</text>
  <text x="656" y="504" font-size="11" fill="#1a4020">regulatory mappings</text>
  <text x="656" y="524" font-size="11" fill="#1a4020">compliance reports</text>

  <!-- ══════════════════════════════════════════════
       AMBER ARROW  trace-pipeline right(600) → OAA left(640)
       No inline label — see legend
  ══════════════════════════════════════════════════ -->
  <line x1="600" y1="510" x2="640" y2="510" stroke="#b45309" stroke-width="2.2" stroke-dasharray="5,3" marker-end="url(#arrowAmber)"/>

  <!-- ══════════════════════════════════════════════
       OUTPUT ROW  (y=628)
  ══════════════════════════════════════════════════ -->
  <line x1="318" y1="604" x2="274" y2="628" stroke="#1e3799" stroke-width="1.5" marker-end="url(#arrowBlue)"/>
  <line x1="426" y1="604" x2="472" y2="628" stroke="#1e3799" stroke-width="1.5" marker-end="url(#arrowBlue)"/>
  <line x1="830" y1="604" x2="830" y2="628" stroke="#166534" stroke-width="2" marker-end="url(#arrowGreen)"/>

  <!-- SFT/DPO -->
  <rect x="180" y="628" width="196" height="58" rx="9" fill="#eff6ff" stroke="#1e3799" stroke-width="1.5" stroke-dasharray="5,3"/>
  <rect x="196" y="638" width="13" height="11" rx="2" fill="none" stroke="#1e3799" stroke-width="1.5"/>
  <path d="M198,638 Q202,632 207,638" fill="none" stroke="#1e3799" stroke-width="1.5"/>
  <text x="220" y="652" font-size="11" font-weight="700" fill="#1e3799">SFT / DPO datasets</text>
  <text x="220" y="668" font-size="10" fill="#778">gated · regression gate</text>

  <!-- Adapter card -->
  <rect x="386" y="628" width="186" height="58" rx="9" fill="#eff6ff" stroke="#1e3799" stroke-width="1.5" stroke-dasharray="5,3"/>
  <rect x="400" y="638" width="14" height="11" rx="2" fill="none" stroke="#1e3799" stroke-width="1.5"/>
  <line x1="404" y1="643" x2="411" y2="643" stroke="#1e3799" stroke-width="1"/>
  <line x1="404" y1="647" x2="410" y2="647" stroke="#1e3799" stroke-width="1"/>
  <text x="426" y="652" font-size="11" font-weight="700" fill="#1e3799">adapter card</text>
  <text x="479" y="668" font-size="10" fill="#778" text-anchor="middle">promote · hold · reject</text>

  <!-- audit-report -->
  <rect x="640" y="628" width="380" height="58" rx="9" fill="#dcfce7" stroke="#166534" stroke-width="1.5"/>
  <rect x="656" y="637" width="14" height="18" rx="2" fill="none" stroke="#166534" stroke-width="1.5"/>
  <line x1="660" y1="643" x2="667" y2="643" stroke="#166534" stroke-width="1"/>
  <line x1="660" y1="647" x2="667" y2="647" stroke="#166534" stroke-width="1"/>
  <text x="682" y="652" font-size="12" font-weight="700" fill="#166534">audit-report.{md, html, pdf}</text>
  <text x="830" y="668" font-size="10.5" fill="#1a5c30" text-anchor="middle">evidence-bundle.zip</text>

  <!-- ══════════════════════════════════════════════
       EXTERNAL OBSERVABILITY
       corridor: 1020→1090 (70px for green arrow)
       External boxes: x=1090 to x=1360
  ══════════════════════════════════════════════════ -->
  <text x="1232" y="90" font-size="11.5" font-weight="700" fill="#166534" text-anchor="middle">External Observability</text>
  <text x="1232" y="106" font-size="10" fill="#888" text-anchor="middle">independent · third-party</text>

  <!-- OTel -->
  <rect x="1094" y="120" width="276" height="46" rx="8" fill="#f0fdf4" stroke="#16a34a" stroke-width="2"/>
  <circle cx="1115" cy="143" r="9" fill="none" stroke="#16a34a" stroke-width="1.5"/>
  <line x1="1115" y1="137" x2="1115" y2="143" stroke="#16a34a" stroke-width="1.5"/>
  <line x1="1115" y1="143" x2="1121" y2="147" stroke="#16a34a" stroke-width="1.5"/>
  <text x="1136" y="140" font-size="14" font-weight="700" fill="#166534">OTel</text>
  <text x="1136" y="157" font-size="10" fill="#556">OpenTelemetry GenAI</text>

  <!-- Langfuse -->
  <rect x="1094" y="176" width="276" height="46" rx="8" fill="#f0fdf4" stroke="#16a34a" stroke-width="2"/>
  <rect x="1105" y="191" width="5" height="13" fill="#16a34a"/>
  <rect x="1113" y="186" width="5" height="18" fill="#16a34a"/>
  <rect x="1121" y="195" width="5" height="9" fill="#16a34a"/>
  <text x="1140" y="196" font-size="14" font-weight="700" fill="#166534">Langfuse</text>
  <text x="1140" y="213" font-size="10" fill="#556">traces + evals</text>

  <!-- LangSmith -->
  <rect x="1094" y="232" width="276" height="46" rx="8" fill="#f0fdf4" stroke="#16a34a" stroke-width="2"/>
  <path d="M1103,249 Q1107,243 1114,249 Q1119,254 1114,260 Q1109,266 1103,260 Q1098,254 1103,249" fill="none" stroke="#16a34a" stroke-width="1.5"/>
  <line x1="1112" y1="252" x2="1119" y2="259" stroke="#16a34a" stroke-width="1.5"/>
  <path d="M1116,249 Q1120,243 1127,249 Q1132,254 1127,260 Q1122,266 1116,260" fill="none" stroke="#16a34a" stroke-width="1.5"/>
  <text x="1140" y="252" font-size="14" font-weight="700" fill="#166534">LangSmith</text>
  <text x="1140" y="269" font-size="10" fill="#556">traces + datasets</text>

  <!-- GREEN ARROW: corridor x=1055, from y=255 down to OAA right edge
       Start: (1055, 255) midpoint of three ext boxes
       Go left to OAA right edge (1020) at mid-height (485)
       Clean L-shape: down first, then left
  -->
  <path d="M1094,255 L1055,255 L1055,485 L1020,485"
        stroke="#16a34a" stroke-width="2" stroke-dasharray="7,4" fill="none" marker-end="url(#arrowGreen)"/>
  <text x="1055" y="374" font-size="10" fill="#2d7a3a" font-style="italic" text-anchor="middle">via adapters</text>

  <!-- ══════════════════════════════════════════════
       LEGEND
  ══════════════════════════════════════════════════ -->
  <rect x="1094" y="360" width="276" height="148" rx="8" fill="#f8f8f8" stroke="#ddd" stroke-width="1.5"/>
  <text x="1108" y="380" font-size="11" font-weight="700" fill="#333">LEGEND</text>

  <line x1="1108" y1="396" x2="1150" y2="396" stroke="#1e3799" stroke-width="2.5" marker-end="url(#arrowBlue)"/>
  <text x="1158" y="400" font-size="10" fill="#333">AEP data flow</text>

  <line x1="1108" y1="416" x2="1150" y2="416" stroke="#16a34a" stroke-width="2" stroke-dasharray="7,3" marker-end="url(#arrowGreen)"/>
  <text x="1158" y="420" font-size="10" fill="#333">External → OAA</text>

  <line x1="1108" y1="436" x2="1150" y2="436" stroke="#b45309" stroke-width="2" stroke-dasharray="5,3" marker-end="url(#arrowAmber)"/>
  <text x="1158" y="440" font-size="10" fill="#333">Evidence bundle</text>

  <line x1="1108" y1="456" x2="1150" y2="456" stroke="#7f8fc8" stroke-width="2" stroke-dasharray="8,4"/>
  <text x="1158" y="460" font-size="10" fill="#333">Planned</text>

  <rect x="1108" y="469" width="36" height="13" rx="3" fill="#eff6ff" stroke="#1e3799" stroke-width="1.2" stroke-dasharray="4,2"/>
  <text x="1158" y="480" font-size="10" fill="#333">Gated output</text>

</svg>
